# xmcd CD database file
#
# Track frame offsets:
#	150
#	23342
#	38182
#	60257
#	86027
#	110552
#	135592
#	161505
#	178907
#	205082
#
# Disc length: 3016 seconds
#
# Revision: 2
# Processed by: cddbd v1.4PL0 Copyright (c) Steve Scherf et al.
# Submitted via: CDex 1.50Beta7
#
DISCID=7a0bc60a
DTITLE=Sambodhi Prem - Nature Space
DYEAR=2001
DGENRE=New Age
TTITLE0=Ode to Nature
TTITLE1=Kyntyre Brase
TTITLE2=Land of Trees
TTITLE3=True Step
TTITLE4=Bush Telegraph
TTITLE5=Woman's Heart
TTITLE6=So right
TTITLE7=The Rise
TTITLE8=The Way
TTITLE9=Walks
EXTD=YEAR: 2001
EXTT0=
EXTT1=
EXTT2=
EXTT3=
EXTT4=
EXTT5=
EXTT6=
EXTT7=
EXTT8=
EXTT9=
PLAYORDER=
